<svg id="bag" xmlns="http://www.w3.org/2000/svg" width="21.132" height="21.104" viewBox="0 0 21.132 21.104">
  <g id="Group_1" data-name="Group 1" transform="translate(0 0)">
    <path id="Path_25" data-name="Path 25" d="M25.1,11.926a.726.726,0,0,0-.727-.618H20.193V9.6a3.2,3.2,0,0,0-6.4,0v1.709H9.614a.726.726,0,0,0-.727.618L6.451,26.649a.715.715,0,0,0,.164.6.745.745,0,0,0,.563.254H26.827a.737.737,0,0,0,.745-.745.921.921,0,0,0-.036-.236ZM15.285,9.6a1.709,1.709,0,0,1,3.417,0v1.709H15.285ZM8.05,26.031,10.25,12.8h3.545v4.163a.745.745,0,1,0,1.491,0V12.8H18.7v4.163a.745.745,0,1,0,1.491,0V12.8h3.545l2.2,13.233H8.05Z" transform="translate(-6.44 -6.4)"/>
  </g>
</svg>
