<svg xmlns="http://www.w3.org/2000/svg" width="37.029" height="38.251" viewBox="0 0 37.029 38.251">
  <g id="_086-clothes-1" data-name="086-clothes-1" transform="translate(0)">
    <g id="Group_92" data-name="Group 92" transform="translate(0)">
      <g id="Group_91" data-name="Group 91">
        <path id="Path_242" data-name="Path 242" d="M20.723,33.308l-1.252.065.156,3H4.644L5.976,10.76c1.245-.57,2.4-1.146,2.4-3.236,0-1.589-.686-4.27-1.936-5.4l.078-.875H8.1a6.369,6.369,0,0,0,4.04,1.254,6.37,6.37,0,0,0,4.04-1.254h1.581l.078.875c-1.25,1.126-1.936,3.807-1.936,5.4,0,2.14,1.208,2.692,2.487,3.277l.253.116.089-.192.82-.043-.039-.744-.6-.277c-1.241-.567-1.755-.8-1.755-2.136,0-1.583.772-4.008,1.673-4.581l.322-.2L18.9,0H15.675l-.183.181a4.968,4.968,0,0,1-3.357,1.074A4.967,4.967,0,0,1,8.778.181L8.6,0H5.366L5.124,2.739l.322.2c.9.573,1.674,3,1.674,4.581,0,1.334-.514,1.569-1.755,2.136l-.6.277L3.323,37.624H20.948Z" transform="translate(-3.323)"/>
      </g>
    </g>
    <g id="Group_94" data-name="Group 94" transform="translate(6.303 7.525)">
      <g id="Group_93" data-name="Group 93">
        <rect id="Rectangle_6" data-name="Rectangle 6" width="6.898" height="1.254"/>
      </g>
    </g>
    <g id="Group_96" data-name="Group 96" transform="translate(6.293 10.022)">
      <g id="Group_95" data-name="Group 95">
        <path id="Path_243" data-name="Path 243" d="M65.179,54.553H55.957a.638.638,0,0,0-.633.717,3.253,3.253,0,0,1,.029.411,3.288,3.288,0,1,1-6.546-.412.639.639,0,0,0-.633-.717H38.215a.638.638,0,0,0-.638.638v5.4a.638.638,0,0,0,.473.617l4.543,1.212V77.765a.638.638,0,0,0,.638.638H54.206a.638.638,0,1,0,0-1.276H43.87v-15.2a.638.638,0,0,0-.473-.617L38.853,60.1v-4.27H47.5a4.564,4.564,0,0,0,9.123,0H64.54v4.288l-3.938,1.2a.638.638,0,0,0-.452.61v6.118a.638.638,0,0,0,1.276,0V62.4l3.938-1.2a.638.638,0,0,0,.452-.61v-5.4A.638.638,0,0,0,65.179,54.553Z" transform="translate(-37.577 -54.553)"/>
      </g>
    </g>
    <g id="Group_98" data-name="Group 98" transform="translate(11.32 14.45)">
      <g id="Group_97" data-name="Group 97">
        <path id="Path_244" data-name="Path 244" d="M65.571,78.655a.627.627,0,0,0-.627.627v5.4a.627.627,0,1,0,1.254,0v-5.4A.627.627,0,0,0,65.571,78.655Z" transform="translate(-64.944 -78.655)"/>
      </g>
    </g>
    <g id="Group_100" data-name="Group 100" transform="translate(28.878 14.45)">
      <g id="Group_99" data-name="Group 99">
        <path id="Path_245" data-name="Path 245" d="M161.144,78.655a.627.627,0,0,0-.627.627v5.4a.627.627,0,1,0,1.254,0v-5.4A.627.627,0,0,0,161.144,78.655Z" transform="translate(-160.517 -78.655)"/>
      </g>
    </g>
    <g id="Group_102" data-name="Group 102" transform="translate(21.98 23.201)">
      <g id="Group_101" data-name="Group 101">
        <path id="Path_246" data-name="Path 246" d="M130.495,126.293a7.525,7.525,0,1,0,7.525,7.525A7.533,7.533,0,0,0,130.495,126.293Zm0,13.8a6.271,6.271,0,1,1,6.271-6.271A6.278,6.278,0,0,1,130.495,140.089Z" transform="translate(-122.97 -126.293)"/>
      </g>
    </g>
    <g id="Group_104" data-name="Group 104" transform="translate(25.743 26.964)">
      <g id="Group_103" data-name="Group 103">
        <path id="Path_247" data-name="Path 247" d="M149.954,146.819a.628.628,0,0,0-.815.349l-2.194,5.486-2.475-1.98a.627.627,0,0,0-.784.979l3.135,2.508a.627.627,0,0,0,.392.137.614.614,0,0,0,.16-.021.626.626,0,0,0,.422-.373l2.508-6.271A.627.627,0,0,0,149.954,146.819Z" transform="translate(-143.451 -146.774)"/>
      </g>
    </g>
  </g>
</svg>
