<svg xmlns="http://www.w3.org/2000/svg" width="27.59" height="39.505" viewBox="0 0 27.59 39.505">
  <g id="_072-delivery-2" data-name="072-delivery-2" transform="translate(0)">
    <g id="Group_106" data-name="Group 106" transform="translate(1.879 11.104)">
      <g id="Group_105" data-name="Group 105">
        <path id="Path_248" data-name="Path 248" d="M50.374,76.8l-4.8-3.4a3.626,3.626,0,0,1-1.577-3.788l2.349-8.376a.627.627,0,0,0-1.208-.339l-2.356,8.4a4.863,4.863,0,0,0,2.067,5.125l4.8,3.4a.627.627,0,0,0,.724-1.024Z" transform="translate(-42.652 -60.441)"/>
      </g>
    </g>
    <g id="Group_108" data-name="Group 108" transform="translate(17.639 10.872)">
      <g id="Group_107" data-name="Group 107">
        <path id="Path_249" data-name="Path 249" d="M136.378,68.245l-2.415-8.608a.627.627,0,0,0-1.208.339l2.408,8.583a3.631,3.631,0,0,1-1.57,3.813L128.7,75.83a.627.627,0,0,0,.724,1.024l4.89-3.458A4.87,4.87,0,0,0,136.378,68.245Z" transform="translate(-128.438 -59.179)"/>
      </g>
    </g>
    <g id="Group_110" data-name="Group 110" transform="translate(0 27.304)">
      <g id="Group_109" data-name="Group 109">
        <path id="Path_250" data-name="Path 250" d="M54.3,149.63l-4.791-.991a.627.627,0,0,0-.254,1.228l4.852,1a.641.641,0,0,0,.127.013,4.723,4.723,0,0,1,4.527,4.887v3.8H33.678v-3.8a4.723,4.723,0,0,1,4.527-4.887.641.641,0,0,0,.127-.013l4.852-1a.627.627,0,0,0-.254-1.228l-4.791.991a5.981,5.981,0,0,0-5.715,6.141v4.43a.627.627,0,0,0,.627.627H59.387a.628.628,0,0,0,.628-.627v-4.43A5.98,5.98,0,0,0,54.3,149.63Z" transform="translate(-32.423 -148.626)"/>
      </g>
    </g>
    <g id="Group_112" data-name="Group 112" transform="translate(10.034 23.201)">
      <g id="Group_111" data-name="Group 111">
        <path id="Path_251" data-name="Path 251" d="M93.937,126.293H87.666a.627.627,0,0,0-.627.627v4.233a.627.627,0,0,0,.346.561,7.675,7.675,0,0,0,6.832,0,.628.628,0,0,0,.346-.561V126.92A.627.627,0,0,0,93.937,126.293Zm-.627,4.459a6.426,6.426,0,0,1-5.017,0v-3.205H93.31Z" transform="translate(-87.039 -126.293)"/>
      </g>
    </g>
    <g id="Group_114" data-name="Group 114" transform="translate(5.644 12.912)">
      <g id="Group_113" data-name="Group 113">
        <path id="Path_252" data-name="Path 252" d="M78.823,70.365a.627.627,0,0,0-.627.627v5.055a4.531,4.531,0,0,1-4.526,4.526H68.926A4.531,4.531,0,0,1,64.4,76.047V70.91a.627.627,0,1,0-1.254,0v5.137a5.786,5.786,0,0,0,5.779,5.78H73.67a5.787,5.787,0,0,0,5.78-5.78V70.992A.627.627,0,0,0,78.823,70.365Z" transform="translate(-63.146 -70.283)"/>
      </g>
    </g>
    <g id="Group_116" data-name="Group 116" transform="translate(16.304 32.607)">
      <g id="Group_115" data-name="Group 115">
        <path id="Path_253" data-name="Path 253" d="M127.443,177.493H121.8a.627.627,0,0,0-.627.627v5.644a.627.627,0,0,0,.627.627h5.644a.627.627,0,0,0,.627-.627V178.12A.627.627,0,0,0,127.443,177.493Zm-.627,5.644h-4.389v-4.389h4.389Z" transform="translate(-121.172 -177.493)"/>
      </g>
    </g>
    <g id="Group_118" data-name="Group 118" transform="translate(4.39)">
      <g id="Group_117" data-name="Group 117">
        <path id="Path_254" data-name="Path 254" d="M68.212.355A8.894,8.894,0,0,0,65.724,0c-5.187,0-9.406,4.5-9.406,10.033a.627.627,0,0,0,.627.627H74.5a.627.627,0,0,0,.627-.627A9.974,9.974,0,0,0,68.212.355ZM57.593,9.406a8.441,8.441,0,0,1,8.131-8.152,7.633,7.633,0,0,1,2.136.3,8.663,8.663,0,0,1,5.995,7.847H57.593Z" transform="translate(-56.318)"/>
      </g>
    </g>
    <g id="Group_120" data-name="Group 120" transform="translate(4.39 9.406)">
      <g id="Group_119" data-name="Group 119">
        <path id="Path_255" data-name="Path 255" d="M74.5,51.2H56.946a.627.627,0,0,0-.627.627c0,3.8,4.219,6.9,9.406,6.9s9.406-3.094,9.406-6.9A.628.628,0,0,0,74.5,51.2Zm-8.779,6.271c-4.189,0-7.65-2.2-8.1-5.017h16.2C73.375,55.272,69.914,57.471,65.725,57.471Z" transform="translate(-56.319 -51.2)"/>
      </g>
    </g>
    <g id="Group_122" data-name="Group 122" transform="translate(14.972 0.627)">
      <g id="Group_121" data-name="Group 121">
        <path id="Path_256" data-name="Path 256" d="M115.058,3.678a.627.627,0,0,0-1.022.727,7.281,7.281,0,0,1,.825,7.562.627.627,0,0,0,1.1.61A8.521,8.521,0,0,0,115.058,3.678Z" transform="translate(-113.92 -3.414)"/>
      </g>
    </g>
    <g id="Group_124" data-name="Group 124" transform="translate(9.319 0.627)">
      <g id="Group_123" data-name="Group 123">
        <path id="Path_257" data-name="Path 257" d="M85.774,3.531a.628.628,0,0,0-.874.148,8.521,8.521,0,0,0-.9,8.9.627.627,0,0,0,.548.321.62.62,0,0,0,.305-.08.627.627,0,0,0,.242-.854,7.354,7.354,0,0,1,.826-7.561A.627.627,0,0,0,85.774,3.531Z" transform="translate(-83.15 -3.416)"/>
      </g>
    </g>
    <g id="Group_126" data-name="Group 126" transform="translate(11.287 20.693)">
      <g id="Group_125" data-name="Group 125">
        <path id="Path_258" data-name="Path 258" d="M98.834,113.03a.627.627,0,0,0-.816-.347l-.979.395a2.928,2.928,0,0,1-1.335,0l-.979-.395a.627.627,0,0,0-.469,1.163l1.021.412a.6.6,0,0,0,.083.027,4.184,4.184,0,0,0,2.024,0,.623.623,0,0,0,.083-.027l1.021-.412A.627.627,0,0,0,98.834,113.03Z" transform="translate(-93.863 -112.637)"/>
      </g>
    </g>
  </g>
</svg>
