<svg id="favorite" xmlns="http://www.w3.org/2000/svg" width="21.166" height="21.104" viewBox="0 0 21.166 21.104">
  <defs>
    <style>
      .cls-1 {
        fill: #fff;
      }
    </style>
  </defs>
  <path id="Path_48" data-name="Path 48" class="cls-1" d="M27.4,15.408a.779.779,0,0,0-.49-.545l-6.12-2.052L17.516,6.8a.765.765,0,0,0-1.344,0l-3.251,5.993L6.783,14.645a.713.713,0,0,0-.509.527.768.768,0,0,0,.182.726l4.032,4.413L8.817,26.54a.755.755,0,0,0,.236.763.736.736,0,0,0,.781.145l7.01-2.8,7.01,2.8a.753.753,0,0,0,.291.054.78.78,0,0,0,.509-.2.767.767,0,0,0,.236-.763l-1.671-6.229,4-4.2a.835.835,0,0,0,.182-.708ZM21.82,19.567a.768.768,0,0,0-.182.726l1.4,5.158-5.9-2.325a.753.753,0,0,0-.291-.054.822.822,0,0,0-.291.054l-5.884,2.343,1.4-5.158a.724.724,0,0,0-.182-.708l-3.505-3.85,5.285-1.58a.7.7,0,0,0,.454-.363l2.724-5.031,2.724,5.031a.794.794,0,0,0,.436.363l5.267,1.762L21.82,19.567Z" transform="translate(-6.247 -6.4)"/>
</svg>
