<svg id="profile" xmlns="http://www.w3.org/2000/svg" width="22.082" height="21.031" viewBox="0 0 22.082 21.031">
  <defs>
    <style>
      .cls-1 {
        fill: #fff;
      }
    </style>
  </defs>
  <path id="Path_40" data-name="Path 40" class="cls-1" d="M135.9,25.218a5.9,5.9,0,1,0-5.91-5.91A5.911,5.911,0,0,0,135.9,25.218Zm0-10.262a4.351,4.351,0,1,1-4.351,4.351A4.364,4.364,0,0,1,135.9,14.956Z" transform="translate(-124.892 -13.415)"/>
  <path id="Path_41" data-name="Path 41" class="cls-1" d="M.78,349.121H21.3a.774.774,0,0,0,.78-.78,7.424,7.424,0,0,0-7.415-7.415H7.415A7.424,7.424,0,0,0,0,348.341.774.774,0,0,0,.78,349.121Zm6.636-6.636h7.252a5.852,5.852,0,0,1,5.8,5.076H1.614A5.868,5.868,0,0,1,7.415,342.485Z" transform="translate(0 -328.09)"/>
</svg>
