<svg id="_060-shopping-bag" data-name="060-shopping-bag" xmlns="http://www.w3.org/2000/svg" width="31.354" height="36.996" viewBox="0 0 31.354 36.996">
  <g id="Group_74" data-name="Group 74" transform="translate(11.249)">
    <g id="Group_73" data-name="Group 73">
      <path id="Path_233" data-name="Path 233" d="M86.3,4.572a5.33,5.33,0,0,0-9.583-2.383.627.627,0,1,0,1.012.74,4.077,4.077,0,0,1,7.329,1.82.628.628,0,0,0,.62.539.672.672,0,0,0,.089-.006A.627.627,0,0,0,86.3,4.572Z" transform="translate(-76.593)"/>
    </g>
  </g>
  <g id="Group_76" data-name="Group 76" transform="translate(1.254 8.152)">
    <g id="Group_75" data-name="Group 75">
      <path id="Path_234" data-name="Path 234" d="M50.941,47.812l-1.881-3.135a.626.626,0,0,0-.538-.3h-1.8a.627.627,0,0,0,0,1.254h1.448L49.3,47.507H23.919l1.129-1.881h.664a.627.627,0,1,0,0-1.254H24.693a.626.626,0,0,0-.538.3l-1.881,3.135a.627.627,0,0,0,.538.95H50.4a.627.627,0,0,0,.538-.95Z" transform="translate(-22.185 -44.372)"/>
    </g>
  </g>
  <g id="Group_78" data-name="Group 78" transform="translate(16.531 3.514)">
    <g id="Group_77" data-name="Group 77">
      <path id="Path_235" data-name="Path 235" d="M115.7,21.422a.626.626,0,0,0-.39-.28l-8.548-2a.627.627,0,0,0-.753.468l-.645,2.756a.627.627,0,0,0,1.221.285l.5-2.145,7.327,1.714-1.151,4.923a.626.626,0,0,0,.468.753.634.634,0,0,0,.144.017.626.626,0,0,0,.61-.484l1.294-5.533A.625.625,0,0,0,115.7,21.422Z" transform="translate(-105.343 -19.126)"/>
    </g>
  </g>
  <g id="Group_80" data-name="Group 80" transform="translate(3.699 1.906)">
    <g id="Group_79" data-name="Group 79">
      <path id="Path_236" data-name="Path 236" d="M47.8,15.76l-.571-4.832a.627.627,0,0,0-.7-.549l-10.488,1.24a.627.627,0,0,0-.549.7l.953,8.06a.627.627,0,0,0,.622.554.685.685,0,0,0,.075,0,.627.627,0,0,0,.549-.7l-.879-7.438L46.06,11.7l.5,4.21A.627.627,0,0,0,47.8,15.76Z" transform="translate(-35.494 -10.374)"/>
    </g>
  </g>
  <g id="Group_82" data-name="Group 82" transform="translate(8.384 6.02)">
    <g id="Group_81" data-name="Group 81">
      <path id="Path_237" data-name="Path 237" d="M73.58,38.425l-1.245-5.176a.626.626,0,0,0-.756-.463l-10.1,2.429a.627.627,0,0,0-.463.756l.622,2.587a.627.627,0,1,0,1.219-.293l-.476-1.977,8.882-2.136,1.1,4.566a.627.627,0,0,0,1.22-.294Z" transform="translate(-60.997 -32.769)"/>
    </g>
  </g>
  <g id="Group_84" data-name="Group 84" transform="translate(0 11.287)">
    <g id="Group_83" data-name="Group 83">
      <path id="Path_238" data-name="Path 238" d="M45.457,62.036a.627.627,0,0,0-.626-.595H17.24a.627.627,0,0,0-.626.595L15.359,86.491a.627.627,0,0,0,.626.659h30.1a.627.627,0,0,0,.627-.659ZM16.645,85.9l1.19-23.2h26.4l1.19,23.2Z" transform="translate(-15.359 -61.441)"/>
    </g>
  </g>
  <g id="Group_86" data-name="Group 86" transform="translate(18.498 13.795)">
    <g id="Group_85" data-name="Group 85">
      <path id="Path_239" data-name="Path 239" d="M117.933,75.093a1.881,1.881,0,1,0,1.881,1.881A1.883,1.883,0,0,0,117.933,75.093Zm0,2.508a.627.627,0,1,1,.627-.627A.628.628,0,0,1,117.933,77.6Z" transform="translate(-116.052 -75.093)"/>
    </g>
  </g>
  <g id="Group_88" data-name="Group 88" transform="translate(9.092 13.795)">
    <g id="Group_87" data-name="Group 87">
      <path id="Path_240" data-name="Path 240" d="M66.733,75.093a1.881,1.881,0,1,0,1.881,1.881A1.883,1.883,0,0,0,66.733,75.093Zm0,2.508a.627.627,0,1,1,.627-.627A.628.628,0,0,1,66.733,77.6Z" transform="translate(-64.852 -75.093)"/>
    </g>
  </g>
  <g id="Group_90" data-name="Group 90" transform="translate(10.347 15.677)">
    <g id="Group_89" data-name="Group 89">
      <path id="Path_241" data-name="Path 241" d="M81.712,85.333h-.048a.627.627,0,0,0-.627.627.62.62,0,0,0,.048.242v3.207a4.076,4.076,0,0,1-8.152,0V85.96a.627.627,0,1,0-1.254,0v3.449a5.33,5.33,0,0,0,10.66,0V85.96A.627.627,0,0,0,81.712,85.333Z" transform="translate(-71.679 -85.333)"/>
    </g>
  </g>
</svg>
